<svg width="24" height="24" viewBox="0 0 24 24" fill="none" xmlns="http://www.w3.org/2000/svg">
<path d="M7 5.99902C6.44803 5.99933 6.00031 5.55213 6 5.00016C6 4.99978 6 4.9994 6 4.99902V2.99902C6 2.44674 6.44772 1.99902 7 1.99902C7.55228 1.99902 8 2.44674 8 2.99902V4.99902C8.00031 5.55099 7.55311 5.99871 7.00114 5.99902C7.00076 5.99902 7.00038 5.99902 7 5.99902ZM17 5.99902C16.448 5.99933 16.0003 5.55213 16 5.00016C16 4.99978 16 4.9994 16 4.99902V2.99902C16 2.44674 16.4477 1.99902 17 1.99902C17.5523 1.99902 18 2.44674 18 2.99902V4.99902C18.0003 5.55099 17.5531 5.99871 17.0011 5.99902C17.0008 5.99902 17.0004 5.99902 17 5.99902Z" fill="#B2B1FF"/>
<path d="M19.0005 4.00098H18.0005V5.0005C18.0005 5.55278 17.5528 6.0005 17.0005 6.0005C16.4482 6.0005 16.0005 5.55278 16.0005 5.0005V4.00098H8.00049V5.0005C8.00049 5.55278 7.55277 6.0005 7.00049 6.0005C6.44821 6.0005 6.00049 5.55278 6.00049 5.0005V4.00098H5.00049C3.34364 4.00098 2.00049 5.34413 2.00049 7.00098V9.00098H22.0005V7.00098C22.0005 5.34413 20.6573 4.00098 19.0005 4.00098Z" fill="#6563FF"/>
<path d="M7 14C7.55228 14 8 13.5523 8 13C8 12.4477 7.55228 12 7 12C6.44772 12 6 12.4477 6 13C6 13.5523 6.44772 14 7 14Z" fill="#6563FF"/>
<path d="M7 18C7.55228 18 8 17.5523 8 17C8 16.4477 7.55228 16 7 16C6.44772 16 6 16.4477 6 17C6 17.5523 6.44772 18 7 18Z" fill="#6563FF"/>
<path d="M12.0005 14C12.5528 14 13.0005 13.5523 13.0005 13C13.0005 12.4477 12.5528 12 12.0005 12C11.4482 12 11.0005 12.4477 11.0005 13C11.0005 13.5523 11.4482 14 12.0005 14Z" fill="#6563FF"/>
<path d="M12.0005 18C12.5528 18 13.0005 17.5523 13.0005 17C13.0005 16.4477 12.5528 16 12.0005 16C11.4482 16 11.0005 16.4477 11.0005 17C11.0005 17.5523 11.4482 18 12.0005 18Z" fill="#6563FF"/>
<path d="M16.9995 14C17.5518 14 17.9995 13.5523 17.9995 13C17.9995 12.4477 17.5518 12 16.9995 12C16.4472 12 15.9995 12.4477 15.9995 13C15.9995 13.5523 16.4472 14 16.9995 14Z" fill="#6563FF"/>
<path d="M16.9995 18C17.5518 18 17.9995 17.5523 17.9995 17C17.9995 16.4477 17.5518 16 16.9995 16C16.4472 16 15.9995 16.4477 15.9995 17C15.9995 17.5523 16.4472 18 16.9995 18Z" fill="#6563FF"/>
<path d="M2.00049 9V19C2.00049 20.6568 3.34364 22 5.00049 22H19.0005C20.6573 22 22.0005 20.6568 22.0005 19V9H2.00049ZM7.00049 18C6.44821 18 6.00049 17.5523 6.00049 17C6.00049 16.4477 6.44821 16 7.00049 16C7.55277 16 8.00049 16.4477 8.00049 17C8.00049 17.5523 7.55277 18 7.00049 18ZM7.00049 14C6.44821 14 6.00049 13.5523 6.00049 13C6.00049 12.4477 6.44821 12 7.00049 12C7.55277 12 8.00049 12.4477 8.00049 13C8.00049 13.5523 7.55277 14 7.00049 14ZM12.0005 18C11.4482 18 11.0005 17.5523 11.0005 17C11.0005 16.4477 11.4482 16 12.0005 16C12.5528 16 13.0005 16.4477 13.0005 17C13.0005 17.5523 12.5528 18 12.0005 18ZM12.0005 14C11.4482 14 11.0005 13.5523 11.0005 13C11.0005 12.4477 11.4482 12 12.0005 12C12.5528 12 13.0005 12.4477 13.0005 13C13.0005 13.5523 12.5528 14 12.0005 14ZM17.0005 18C16.4482 18 16.0005 17.5523 16.0005 17C16.0005 16.4477 16.4482 16 17.0005 16C17.5528 16 18.0005 16.4477 18.0005 17C18.0005 17.5523 17.5528 18 17.0005 18ZM17.0005 14C16.4482 14 16.0005 13.5523 16.0005 13C16.0005 12.4477 16.4482 12 17.0005 12C17.5528 12 18.0005 12.4477 18.0005 13C18.0005 13.5523 17.5528 14 17.0005 14Z" fill="#B2B1FF"/>
</svg>
